<?xml version="1.0" encoding="utf-8"?>
<!-- Generator: Adobe Illustrator 21.0.0, SVG Export Plug-In . SVG Version: 6.00 Build 0)  -->
<svg version="1.1" id="레이어_1" xmlns="http://www.w3.org/2000/svg" xmlns:xlink="http://www.w3.org/1999/xlink" x="0px"
	 y="0px" viewBox="0 0 56 56" style="enable-background:new 0 0 56 56;" xml:space="preserve">
<style type="text/css">
	.st0{fill:#4D4D4D;}
</style>
<g>
	<polygon class="st0" points="30.3,40.6 28.1,40.6 28.1,50.7 12.6,50.7 12.6,52.9 45.9,52.9 45.9,50.7 30.3,50.7 	"/>
	<path class="st0" d="M29.2,40.6c9.2,0,16.7-7.3,17.1-16.4h-2.2c-0.4,7.9-6.9,14.2-14.9,14.2S14.7,32,14.4,24.1h-2.2
		C12.5,33.2,20,40.6,29.2,40.6z"/>
	<path class="st0" d="M29.2,32.8L29.2,32.8c5.7,0,10.3-4.7,10.3-10.3v-8c0-5.7-4.7-10.3-10.3-10.3h0c-5.7,0-10.3,4.7-10.3,10.3v8
		C18.9,28.1,23.6,32.8,29.2,32.8z"/>
</g>
</svg>
