<?xml version="1.0" encoding="utf-8"?>
<!-- Generator: Adobe Illustrator 21.0.0, SVG Export Plug-In . SVG Version: 6.00 Build 0)  -->
<svg version="1.1" id="레이어_1" xmlns="http://www.w3.org/2000/svg" xmlns:xlink="http://www.w3.org/1999/xlink" x="0px"
	 y="0px" viewBox="0 0 56 56" style="enable-background:new 0 0 56 56;" xml:space="preserve">
<style type="text/css">
	.st0{fill:#4D4D4D;}
</style>
<g>
	<path class="st0" d="M34.3,31.1l15.4-15.4v3.1c0,0.8,0.7,1.5,1.5,1.5c0.8,0,1.5-0.7,1.5-1.5v-6.7c0-0.1,0-0.2,0-0.3
		c0,0,0-0.1,0-0.1c0,0,0-0.1,0-0.1c0-0.1-0.1-0.1-0.1-0.1c0,0,0-0.1-0.1-0.1c-0.1-0.2-0.2-0.3-0.4-0.4c0,0-0.1,0-0.1-0.1
		c0,0-0.1-0.1-0.1-0.1c0,0-0.1,0-0.1,0c0,0-0.1,0-0.1,0c-0.1,0-0.2,0-0.3,0h-7.2c-0.8,0-1.5,0.7-1.5,1.5s0.7,1.5,1.5,1.5h3.6
		L32.2,29L34.3,31.1z"/>
	<path class="st0" d="M22.6,38.6l-2.5-2.5L18,38.2l3.6,3.6c0.3,0.3,0.7,0.4,1,0.4c0.4,0,0.8-0.1,1-0.4l6-6l-2.1-2.1L22.6,38.6z"/>
	<path class="st0" d="M13.3,33.6l2.1-2.1L8,24c-0.6-0.6-1.5-0.6-2.1,0s-0.6,1.5,0,2.1L13.3,33.6z"/>
	<path class="st0" d="M51.9,34.8h-7.2c-0.8,0-1.5,0.7-1.5,1.5c0,0.8,0.7,1.5,1.5,1.5h3.7l-5,5L26.1,25.4c-0.3-0.3-0.7-0.4-1-0.4
		c-0.4,0-0.8,0.1-1,0.4L5.6,43.9c-0.6,0.6-0.6,1.5,0,2.1c0.3,0.3,0.7,0.4,1,0.4c0.4,0,0.8-0.1,1-0.4L25,28.6l17.3,17.3
		c0.3,0.3,0.7,0.4,1,0.4c0.4,0,0.8-0.1,1-0.4l5.9-5.9v3c0,0.8,0.7,1.5,1.5,1.5c0.8,0,1.5-0.7,1.5-1.5v-6.7
		C53.4,35.5,52.7,34.8,51.9,34.8z"/>
</g>
</svg>
