<?xml version="1.0" encoding="utf-8"?>
<!-- Generator: Adobe Illustrator 21.0.0, SVG Export Plug-In . SVG Version: 6.00 Build 0)  -->
<svg version="1.1" id="레이어_1" xmlns="http://www.w3.org/2000/svg" xmlns:xlink="http://www.w3.org/1999/xlink" x="0px"
	 y="0px" viewBox="0 0 56 56" style="enable-background:new 0 0 56 56;" xml:space="preserve">
<style type="text/css">
	.st0{fill:#4D4D4D;}
</style>
<g>
	<g>
		<path class="st0" d="M33.2,8.4C32.9,6.5,31.2,5,29.2,5c-2.2,0-4,1.8-4,4s1.8,4,4,4c1.4,0,2.6-0.7,3.3-1.8
			c8.9,1.6,15.8,9.4,15.8,18.8c0,10.5-8.6,19.1-19.1,19.1c-10.5,0-19.1-8.6-19.1-19.1c0-3.1,0.8-6.1,2.1-8.7l-2-2.5
			c-2,3.3-3.1,7.1-3.1,11.2c0,12.2,9.8,22,22,22s22-9.8,22-22C51.2,19.2,43.4,10.2,33.2,8.4z"/>
	</g>
	<path class="st0" d="M25.9,32.2c0.1,0.1,0.1,0.1,0.2,0.2l0.1,0.1c0,0,0,0,0,0c0.7,0.9,1.8,1.5,3.1,1.5c2.2,0,4-1.8,4-4
		c0-1.3-0.6-2.4-1.5-3.1c0,0,0,0,0,0L14.3,13.3c-0.2-0.2-0.5-0.3-0.8-0.3c-0.3,0-0.6,0.1-0.8,0.3c-0.3,0.2-0.5,0.6-0.5,1
		c0,0.3,0.1,0.6,0.3,0.8L25.9,32.2z"/>
</g>
</svg>
