<?xml version="1.0" encoding="utf-8"?>
<!-- Generator: Adobe Illustrator 21.0.0, SVG Export Plug-In . SVG Version: 6.00 Build 0)  -->
<svg version="1.1" id="레이어_1" xmlns="http://www.w3.org/2000/svg" xmlns:xlink="http://www.w3.org/1999/xlink" x="0px"
	 y="0px" viewBox="0 0 56 56" style="enable-background:new 0 0 56 56;" xml:space="preserve">
<style type="text/css">
	.st0{fill:#4D4D4D;}
</style>
<path class="st0" d="M7.2,39.5h20v2h-20V39.5z M41.2,33.5h-34v2h34c2.8,0,5,2.2,5,5c0,2.8-2.2,5-5,5c-2.8,0-5-2.2-5-5h-2
	c0,3.9,3.1,7,7,7c3.9,0,7-3.1,7-7S45.1,33.5,41.2,33.5z M41.2,9.5c-5.5,0-10,4.5-10,10h2c0-4.4,3.6-8,8-8c4.4,0,8,3.6,8,8
	s-3.6,8-8,8h-34v2h34c5.5,0,10-4.5,10-10S46.8,9.5,41.2,9.5z M23.2,17.5c0-3.3-2.7-6-6-6c-3.3,0-6,2.7-6,6h2c0-2.2,1.8-4,4-4
	c2.2,0,4,1.8,4,4s-1.8,4-4,4h-10v2h10C20.5,23.5,23.2,20.8,23.2,17.5z"/>
</svg>
