<?xml version="1.0" encoding="utf-8"?>
<!-- Generator: Adobe Illustrator 21.0.0, SVG Export Plug-In . SVG Version: 6.00 Build 0)  -->
<svg version="1.1" id="레이어_1" xmlns="http://www.w3.org/2000/svg" xmlns:xlink="http://www.w3.org/1999/xlink" x="0px"
	 y="0px" viewBox="0 0 56 56" style="enable-background:new 0 0 56 56;" xml:space="preserve">
<style type="text/css">
	.st0{fill:#4D4D4D;}
</style>
<g>
	<g>
		<path class="st0" d="M28.2,13.4c-6.3,0-18.1-1-18.1-4.9c0-3.9,11.8-4.9,18.1-4.9s18.1,1,18.1,4.9C46.4,12.4,34.5,13.4,28.2,13.4z
			 M28.2,5.5c-10.8,0-16.3,2.2-16.3,3.1c0,0.9,5.6,3.1,16.3,3.1s16.3-2.2,16.3-3.1C44.6,7.7,39,5.5,28.2,5.5z"/>
	</g>
	<g>
		<path class="st0" d="M23.4,51.3V33c-1.6-0.8-6.4-3.5-9.8-9.4c-4.1-7.1-3.5-14.8-3.4-15.1l1.8,0.2c0,0.1-0.6,7.4,3.2,14
			c3.8,6.6,9.4,8.9,9.5,8.9l0.6,0.2l0,0.6V48l6.2-4.1v-12l0.6-0.2c0.1,0,5.7-2.3,9.5-8.9c3.8-6.6,3.2-14,3.2-14l1.8-0.2
			c0,0.3,0.7,8-3.4,15.1c-3.4,5.9-8.2,8.6-9.8,9.4v11.8L23.4,51.3z"/>
	</g>
</g>
</svg>
