<?xml version="1.0" encoding="utf-8"?>
<!-- Generator: Adobe Illustrator 21.0.0, SVG Export Plug-In . SVG Version: 6.00 Build 0)  -->
<svg version="1.1" id="레이어_1" xmlns="http://www.w3.org/2000/svg" xmlns:xlink="http://www.w3.org/1999/xlink" x="0px"
	 y="0px" viewBox="0 0 56 56" style="enable-background:new 0 0 56 56;" xml:space="preserve">
<style type="text/css">
	.st0{fill:#4D4D4D;}
</style>
<path class="st0" d="M46.8,29.1c-1.9-1.9-5.9-3.8-9.4-4.4l8.9-8.9c1.4-1.4,1.7-2.6,0-4.2C42.3,7.6,33.7,7.1,29.8,11
	c-1.9,1.9-3.8,5.9-4.4,9.4l-8.9-8.9c-1.4-1.4-2.6-1.7-4.2,0c-3.9,3.9-4.5,12.5-0.6,16.4c1.9,1.9,5.9,3.8,9.4,4.4l-8.9,8.9
	c-1.4,1.4-1.7,2.6,0,4.2c3.9,3.9,12.5,4.5,16.4,0.6c1.9-1.9,3.8-5.9,4.4-9.4l8.9,8.9c1.4,1.4,2.6,1.7,4.2,0
	C50.2,41.5,50.7,33,46.8,29.1z M29.2,32c-1.9,0-3.5-1.6-3.5-3.5c0-1.9,1.6-3.5,3.5-3.5c1.9,0,3.5,1.6,3.5,3.5
	C32.7,30.4,31.2,32,29.2,32z"/>
</svg>
