<?xml version="1.0" encoding="utf-8"?>
<!-- Generator: Adobe Illustrator 23.0.3, SVG Export Plug-In . SVG Version: 6.00 Build 0)  -->
<svg version="1.1" id="레이어_1" xmlns="http://www.w3.org/2000/svg" xmlns:xlink="http://www.w3.org/1999/xlink" x="0px"
	 y="0px" viewBox="0 0 56 56" style="enable-background:new 0 0 56 56;" xml:space="preserve">
<style type="text/css">
	.st0{fill:#4D4D4D;}
</style>
<g>
	<g>
		<path class="st0" d="M12.5,38.1c-5.2,0-9.4-4.2-9.4-9.4c0-5.2,4.2-9.4,9.4-9.4s9.4,4.2,9.4,9.4C22,33.9,17.7,38.1,12.5,38.1z
			 M12.5,21.3c-4.1,0-7.4,3.3-7.4,7.4c0,4.1,3.3,7.4,7.4,7.4s7.4-3.3,7.4-7.4C20,24.6,16.6,21.3,12.5,21.3z"/>
	</g>
	<g>
		<path class="st0" d="M43.5,22.7c-5.2,0-9.4-4.2-9.4-9.4c0-5.2,4.2-9.4,9.4-9.4s9.4,4.2,9.4,9.4C52.9,18.4,48.7,22.7,43.5,22.7z
			 M43.5,5.8c-4.1,0-7.4,3.3-7.4,7.4s3.3,7.4,7.4,7.4c4.1,0,7.4-3.3,7.4-7.4S47.6,5.8,43.5,5.8z"/>
	</g>
	<g>
		<path class="st0" d="M43.5,53.6c-5.2,0-9.4-4.2-9.4-9.4s4.2-9.4,9.4-9.4s9.4,4.2,9.4,9.4S48.7,53.6,43.5,53.6z M43.5,36.7
			c-4.1,0-7.4,3.3-7.4,7.4s3.3,7.4,7.4,7.4c4.1,0,7.4-3.3,7.4-7.4S47.6,36.7,43.5,36.7z"/>
	</g>
	<g>
		<rect x="27" y="28.6" transform="matrix(0.4472 -0.8944 0.8944 0.4472 -17.1096 45.1834)" class="st0" width="2" height="15.7"/>
	</g>
	<g>
		<rect x="20.1" y="20" transform="matrix(0.8944 -0.4472 0.4472 0.8944 -6.4213 14.7359)" class="st0" width="15.7" height="2"/>
	</g>
</g>
</svg>
