<?xml version="1.0" encoding="utf-8"?>
<!-- Generator: Adobe Illustrator 21.0.0, SVG Export Plug-In . SVG Version: 6.00 Build 0)  -->
<svg version="1.1" id="레이어_1" xmlns="http://www.w3.org/2000/svg" xmlns:xlink="http://www.w3.org/1999/xlink" x="0px"
	 y="0px" viewBox="0 0 56 56" style="enable-background:new 0 0 56 56;" xml:space="preserve">
<style type="text/css">
	.st0{fill:#4D4D4D;}
</style>
<g>
	<g>
		<path class="st0" d="M28,18.5c-2.7,0-4.8,2.2-4.8,4.8c0,2.3,1.6,4.2,3.7,4.7v25.1h2.6V27.9c2-0.6,3.4-2.4,3.4-4.6
			C32.9,20.6,30.7,18.5,28,18.5z"/>
		<path class="st0" d="M28,3.9c-10.7,0-19.5,8.7-19.5,19.5c0,5.1,2,10,5.6,13.6l1.8-1.8c-3.1-3.2-4.8-7.4-4.8-11.8
			C11.1,14,18.7,6.4,28,6.4c9.3,0,16.9,7.6,16.9,16.9c0,4.5-1.7,8.7-4.8,11.8l1.8,1.8c3.6-3.7,5.6-8.5,5.6-13.6
			C47.5,12.6,38.8,3.9,28,3.9z"/>
		<path class="st0" d="M28,8.7c-7.9,0-14.4,6.5-14.4,14.4c0,3.8,1.5,7.5,4.2,10.2l1.9-1.9c-2.2-2.2-3.5-5.2-3.5-8.3
			c0-6.5,5.3-11.8,11.8-11.8c6.5,0,11.8,5.3,11.8,11.8c0,3.2-1.2,6.1-3.5,8.3l1.9,1.9c2.7-2.7,4.2-6.3,4.2-10.2
			C42.4,15.2,36,8.7,28,8.7z"/>
		<path class="st0" d="M28,13.5c-5.4,0-9.8,4.4-9.8,9.8c0,2.6,1,5,2.8,6.8l1.8-1.8c-1.3-1.3-2-3.1-2-5c0-4,3.2-7.2,7.2-7.2
			c4,0,7.2,3.2,7.2,7.2c0,1.9-0.7,3.6-2,5l1.8,1.8c1.8-1.8,2.8-4.2,2.8-6.8C37.8,17.9,33.4,13.5,28,13.5z"/>
	</g>
</g>
</svg>
