<?xml version="1.0" encoding="utf-8"?>
<!-- Generator: Adobe Illustrator 21.0.0, SVG Export Plug-In . SVG Version: 6.00 Build 0)  -->
<svg version="1.1" id="레이어_1" xmlns="http://www.w3.org/2000/svg" xmlns:xlink="http://www.w3.org/1999/xlink" x="0px"
	 y="0px" viewBox="0 0 56 56" style="enable-background:new 0 0 56 56;" xml:space="preserve">
<style type="text/css">
	.st0{fill:#4D4D4D;}
</style>
<g>
	<path class="st0" d="M37.3,11.6C34,8.2,29.5,6.4,24.8,6.4c-4.7,0-9.2,1.8-12.5,5.2c-6.9,6.9-6.9,18.1,0,25c3.5,3.5,8,5.2,12.5,5.2
		c4.5,0,9.1-1.7,12.5-5.2C44.2,29.7,44.2,18.5,37.3,11.6z M13.5,35.3c-6.2-6.2-6.2-16.3,0-22.6c3-3,7-4.7,11.3-4.7
		c4.3,0,8.3,1.7,11.3,4.7c6.2,6.2,6.2,16.3,0,22.6C29.9,41.6,19.7,41.6,13.5,35.3z"/>
	<path class="st0" d="M49.3,38.7L42.6,32c-0.2,0.6-0.5,1.1-0.8,1.7l6.3,6.3c2.1,2.1,2.1,5.4,0,7.4c-2.1,2.1-5.4,2.1-7.4,0l-6.3-6.3
		c-0.5,0.3-1.1,0.6-1.7,0.8l6.7,6.7c2.7,2.7,7.2,2.7,9.9,0C52.1,45.9,52.1,41.4,49.3,38.7z"/>
	<rect x="16.1" y="21.4" class="st0" width="3" height="9.9"/>
	<rect x="23.1" y="14.3" class="st0" width="3" height="18.8"/>
	<rect x="30.1" y="17.6" class="st0" width="3" height="13.6"/>
</g>
</svg>
