<?xml version="1.0" encoding="utf-8"?>
<!-- Generator: Adobe Illustrator 21.0.0, SVG Export Plug-In . SVG Version: 6.00 Build 0)  -->
<svg version="1.1" id="레이어_1" xmlns="http://www.w3.org/2000/svg" xmlns:xlink="http://www.w3.org/1999/xlink" x="0px"
	 y="0px" viewBox="0 0 56 56" style="enable-background:new 0 0 56 56;" xml:space="preserve">
<style type="text/css">
	.st0{fill:#4D4D4D;}
</style>
<g>
	<circle class="st0" cx="29.2" cy="28.5" r="3.2"/>
	<path class="st0" d="M34.5,4.8H24c-10.1,0-18.4,8.3-18.4,18.4v10.5c0,10.1,8.3,18.4,18.4,18.4h10.5c10.1,0,18.4-8.3,18.4-18.4V23.3
		C52.9,13.1,44.6,4.8,34.5,4.8z M44.9,44.2c-1.5,1.5-2.6,1.3-3.9,0L32.8,36c-0.6,3.2-2.3,7-4.1,8.7c-3.6,3.6-11.5,3.1-15.1-0.5
		c-1.5-1.5-1.3-2.6,0-3.9l8.2-8.2c-3.2-0.6-7-2.3-8.7-4.1c-3.6-3.6-3.1-11.5,0.5-15.1c1.5-1.5,2.6-1.3,3.9,0l8.2,8.2
		c0.6-3.2,2.3-7,4.1-8.7c3.6-3.6,11.5-3.1,15.1,0.5c1.5,1.5,1.3,2.6,0,3.9L36.7,25c3.2,0.6,7,2.3,8.7,4.1
		C49,32.6,48.5,40.5,44.9,44.2z"/>
</g>
</svg>
