<?xml version="1.0" encoding="utf-8"?>
<!-- Generator: Adobe Illustrator 21.0.0, SVG Export Plug-In . SVG Version: 6.00 Build 0)  -->
<svg version="1.1" id="레이어_1" xmlns="http://www.w3.org/2000/svg" xmlns:xlink="http://www.w3.org/1999/xlink" x="0px"
	 y="0px" viewBox="0 0 219.9 61.1" style="enable-background:new 0 0 219.9 61.1;" xml:space="preserve">
<style type="text/css">
	.st0{fill:#162141;}
	.st1{fill:#F4E42C;}
	.st2{fill:#FFFFFF;}
</style>
<g>
	<rect y="0" class="st0" width="61.1" height="61.1"/>
</g>
<g>
	<path class="st1" d="M29.5,11.8V3.1h-26v7.2v1.6v27.8c0,6.4,5.8,11.7,13,11.7s13-5.2,13-11.7V14.7h-9.7v24.9c0,1.7-1.4,3-3.2,3
		c-1.8,0-3.2-1.3-3.2-3V11.8H29.5z"/>
</g>
<g>
	<path class="st1" d="M32.1,11.8V3.1H58v7.2v1.6v27.8c0,6.4-5.8,11.7-13,11.7S32.1,46,32.1,39.6V14.7h9.7v24.9c0,1.7,1.4,3,3.2,3
		c1.8,0,3.2-1.3,3.2-3V11.8H32.1z"/>
</g>
<g>
	<path class="st2" d="M4.8,55v3.2H4.4V55H3.6v-0.4h2.1V55H4.8z"/>
	<path class="st2" d="M8.1,57.1H6.6l-0.5,1H5.6l1.7-3.7l1.7,3.7H8.5L8.1,57.1z M8,56.8l-0.6-1.4l-0.6,1.4H8z"/>
	<path class="st2" d="M11.7,55h-1.4V56h1.4v0.4h-1.4v1.4h1.4v0.4H9.8v-3.6h1.9V55z"/>
	<path class="st2" d="M13.5,54.6v2.5c0,0.2,0,0.6-0.2,0.8c-0.1,0.1-0.4,0.2-0.6,0.2S12.2,58.1,12,58l0.2-0.4
		c0.1,0.1,0.2,0.2,0.4,0.2c0.1,0,0.2,0,0.2-0.1c0.1-0.1,0.1-0.4,0.1-0.6v-2.5C13,54.6,13.5,54.6,13.5,54.6z"/>
	<path class="st2" d="M15,54.6v3.6h-0.4v-3.6H15z"/>
	<path class="st2" d="M16.1,58.1v-3.7l2.9,2.9v-2.7h0.5v3.7l-2.9-2.9v2.7H16.1z"/>
	<path class="st2" d="M22.9,55v3.2h-0.4V55h-0.8v-0.4h2.1V55H22.9z"/>
	<path class="st2" d="M26.5,55H25V56h1.4v0.4H25v1.4h1.4v0.4h-1.9v-3.6h1.9V55z"/>
	<path class="st2" d="M30.2,55.3c-0.1-0.1-0.2-0.2-0.5-0.4s-0.4-0.1-0.6-0.1c-0.8,0-1.4,0.7-1.4,1.4c0,1,0.8,1.4,1.4,1.4
		c0.2,0,0.5-0.1,0.7-0.1c0.2-0.1,0.4-0.2,0.5-0.4v0.5c-0.4,0.2-0.8,0.4-1.1,0.4c-1.1,0-1.9-0.8-1.9-1.8c0-1.1,0.8-1.8,1.9-1.8
		c0.2,0,0.6,0,1.1,0.4v0.5H30.2z"/>
	<path class="st2" d="M31.6,56h1.9v-1.4h0.4v3.6h-0.4v-1.8h-1.9v1.8h-0.4v-3.6h0.4V56z"/>
	<path class="st2" d="M35.1,58.1v-3.7l2.9,2.9v-2.7h0.4v3.7l-2.9-2.9v2.7H35.1z"/>
	<path class="st2" d="M39.2,56.4c0-1.1,0.8-1.8,1.9-1.8s1.9,0.8,1.9,1.8c0,1.1-0.8,1.8-1.9,1.8S39.2,57.4,39.2,56.4z M39.6,56.4
		c0,0.8,0.7,1.4,1.4,1.4c0.7,0,1.4-0.6,1.4-1.4S41.7,55,41,55C40.3,55,39.6,55.6,39.6,56.4z"/>
	<path class="st2" d="M44.4,54.6v3.2h1v0.4h-1.4v-3.6H44.4z"/>
	<path class="st2" d="M45.8,56.4c0-1.1,0.8-1.8,1.9-1.8c1.1,0,1.9,0.8,1.9,1.8c0,1.1-0.8,1.8-1.9,1.8C46.6,58.2,45.8,57.4,45.8,56.4
		z M46.2,56.4c0,0.8,0.7,1.4,1.4,1.4s1.4-0.6,1.4-1.4S48.3,55,47.6,55S46.2,55.6,46.2,56.4z"/>
	<path class="st2" d="M52.4,56.4h1.6v0.1c0,0.4-0.1,0.8-0.4,1.1c-0.1,0.1-0.5,0.6-1.3,0.6c-1.1,0-1.9-0.8-1.9-1.8
		c0-1.1,0.8-1.8,1.9-1.8c0.4,0,0.7,0.1,1.1,0.4c0.1,0.1,0.4,0.2,0.5,0.5l-0.4,0.1c-0.1-0.1-0.2-0.2-0.4-0.4
		c-0.1-0.1-0.5-0.2-0.8-0.2c-0.8,0-1.6,0.6-1.6,1.4c0,1,0.8,1.4,1.4,1.4c0.5,0,1-0.2,1.1-0.6c0.1-0.1,0.1-0.2,0.1-0.5h-1.1v-0.4
		H52.4z"/>
	<path class="st2" d="M55.7,56.6l-1.2-2H55l1,1.6l1-1.6h0.5l-1.2,2v1.6h-0.4v-1.6H55.7z"/>
</g>
<g>
	<path class="st0" d="M89.8,1v3.9H82v8.6h7.9v3.9H82v10h9.7V0.2h5.5v14h4.1v-14h5.5v35.3h-5.5V18.2h-4.1v17.3h-5.5v-4.1h-9.9
		c-1.8,0-3.1-0.4-3.9-1c-0.8-0.7-1.2-1.8-1.2-3.2V1.1h13.1V1z"/>
	<path class="st0" d="M133.8,1v3.9h-7c0,3.5,1,6.4,2.9,9.1c1.6,2,3.6,3.7,6.2,5l-2.5,3.1c-1.9-1-3.7-2-5.2-3.2
		c-1.8-1.3-3.1-2.7-4.1-4.1c-0.8,1.3-2.1,2.6-3.9,4.1c-1.7,1.2-3.3,2.3-5.2,3.2l-2.1-3.1c2.5-1.2,4.5-2.9,6-5
		c1.8-2.5,2.6-5.5,2.6-9.1h-6.7V1C114.6,1,133.8,1,133.8,1z M121.8,31.1h22.1v3.9h-22.7c-1.8,0-3-0.4-3.7-1c-0.7-0.6-1.1-1.6-1.1-3
		v-7.5h5.5v7.5H121.8z M143.6,0.2v25.4h-5.5V0.2H143.6z"/>
	<path class="st0" d="M164.6,1v3.9h-7.4v8.8h5.4v3.9h-5.4v9.8H168v-9.7h-3.6v-3.9h3.6V0.2h5.4v35.3H168v-4.1h-11.1
		c-1.8,0-3.1-0.4-3.9-1c-0.8-0.7-1.2-1.8-1.2-3.2V1.1h12.8V1z M181.6,0.2v35.3h-5.4V0.2H181.6z"/>
	<path class="st0" d="M211.6,28.9c0.4-1.7,0.7-3.6,1-5.7c0.2-2.4,0.4-4.9,0.4-7.6h-22.5v-3.9h22.5V4.9h-22.8V1h28.1v13.2
		c0,3-0.1,5.6-0.4,7.8c-0.2,2.5-0.6,4.8-1.2,6.8h3.2v4.2h-31.7v-4.1H211.6z"/>
</g>
<g>
	<path class="st0" d="M88.7,54.7v1.6h4.2v4.3h-1.3v-3.2H83v-1.1h4.4v-1.6h-6v-1.1h13.2v1.1C94.7,54.7,88.7,54.7,88.7,54.7z
		 M90.6,50.9c0.5,0.2,1.1,0.4,1.7,0.6c0.6,0.2,1.2,0.2,1.7,0.4c-0.1,0.1-0.4,0.4-0.5,0.5c-0.1,0.1-0.2,0.4-0.4,0.5
		c-0.5-0.1-0.8-0.2-1.3-0.4c-0.5-0.1-1-0.2-1.4-0.5c-0.5-0.2-0.8-0.4-1.3-0.7c-0.4-0.2-0.7-0.6-1-1c-0.2,0.4-0.6,0.6-1,0.8
		c-0.4,0.2-0.7,0.5-1.2,0.6c-0.5,0.2-1,0.4-1.4,0.5c-0.5,0.1-1,0.2-1.6,0.4c-0.1-0.1-0.2-0.2-0.4-0.5c-0.1-0.2-0.4-0.4-0.5-0.6
		c0.6-0.1,1.2-0.2,1.8-0.4c0.6-0.1,1.1-0.4,1.6-0.5c0.5-0.2,0.8-0.4,1.1-0.6c0.4-0.2,0.5-0.5,0.6-0.8h-4.3v-0.8H93v1.1h-4.3
		c0.1,0.4,0.4,0.6,0.7,0.8C89.9,50.6,90.3,50.8,90.6,50.9L90.6,50.9z M85.4,47.3v-1.1h5.4v1.1H85.4z"/>
	<path class="st0" d="M100.3,50.1c0.2,0.5,0.5,1,0.8,1.3c0.4,0.5,0.7,0.8,1.2,1.1c0.5,0.4,1,0.6,1.4,0.7c-0.1,0.1-0.4,0.4-0.5,0.5
		c-0.1,0.1-0.4,0.4-0.5,0.5c-0.4-0.1-0.6-0.4-1-0.5c-0.4-0.2-0.6-0.5-1-0.7c-0.4-0.2-0.6-0.6-1-1s-0.5-0.7-0.7-1.1
		c-0.1,0.4-0.4,0.7-0.6,1.1c-0.2,0.4-0.5,0.7-0.8,1c-0.4,0.4-0.7,0.6-1.1,0.8c-0.4,0.2-0.7,0.5-1.1,0.7c-0.1-0.1-0.2-0.2-0.5-0.5
		c-0.2-0.2-0.5-0.4-0.6-0.5c0.6-0.2,1.1-0.6,1.6-1c0.5-0.4,1-0.7,1.3-1.2c0.4-0.5,0.6-1,0.8-1.4c0.2-0.5,0.2-1.1,0.2-1.7v-1.7h1.4
		v1.8C100.1,49,100.1,49.5,100.3,50.1z M97.5,60.2v-4.5h1.3v3.5h8.2v1.1H97.5z M106.6,46.4v4.2h2v1.2h-2v5h-1.3V46.4H106.6z"/>
	<path class="st0" d="M119.5,53.9v-3.2h-2.9c-0.1,0.8-0.6,1.6-1.2,2c-0.7,0.5-1.4,0.8-2.4,0.8c-1.1,0-1.9-0.4-2.6-1
		c-0.7-0.7-1.1-1.4-1.1-2.5c0-1.1,0.4-1.8,1.1-2.5s1.6-1,2.6-1c1,0,1.8,0.2,2.4,0.8c0.7,0.6,1.1,1.3,1.2,2.1h2.9v-3.1h1.3V54h-1.3
		V53.9z M111.3,51.6c0.5,0.5,1,0.7,1.8,0.7c0.7,0,1.3-0.2,1.7-0.7c0.4-0.5,0.6-1,0.6-1.7s-0.2-1.2-0.6-1.7c-0.5-0.5-1-0.7-1.7-0.7
		s-1.3,0.2-1.8,0.7c-0.5,0.5-0.6,1-0.6,1.7C110.7,50.7,110.9,51.3,111.3,51.6z M111.4,60.5v-5.8h1.3v1.7h6.7v-1.7h1.3v5.8H111.4z
		 M119.5,57.4h-6.7v1.9h6.7V57.4z"/>
	<path class="st0" d="M132,51.8c0.1,0.6,0.4,1.2,0.7,1.8c0.4,0.6,0.7,1.1,1.3,1.6c0.6,0.5,1.1,1,1.8,1.3c-0.1,0.1-0.4,0.2-0.5,0.5
		c-0.2,0.2-0.4,0.4-0.5,0.5c-0.4-0.2-0.7-0.5-1.1-0.8c-0.4-0.2-0.7-0.6-1-1c-0.4-0.4-0.7-0.8-1-1.2c-0.2-0.5-0.5-0.8-0.7-1.3
		c-0.1,0.5-0.4,0.8-0.6,1.3c-0.2,0.5-0.6,0.8-0.8,1.3c-0.4,0.5-0.7,0.8-1.1,1.2s-0.7,0.7-1.1,1c-0.1-0.1-0.4-0.2-0.6-0.5
		c-0.2-0.1-0.5-0.4-0.7-0.5c0.7-0.4,1.3-0.8,1.8-1.3c0.5-0.5,1-1.1,1.3-1.7c0.4-0.6,0.6-1.3,0.8-2c0.2-0.7,0.2-1.4,0.2-2.3v-1.2
		h-3.1v-1.1h7.6v1.1h-3.2v1.3C131.8,50.4,131.8,51.2,132,51.8z M138,46.4v5.5h2.1v1.2H138v7.5h-1.3V46.4H138z"/>
	<path class="st0" d="M140.1,54.4v-1.1h6v-1.9h-4.2v-4.5h9.8v1.1h-8.3v2.4h8.6v1.1h-4.3v1.9h6v1.1H140.1z M143,60
		c-1-0.5-1.3-1.2-1.3-1.9s0.5-1.4,1.3-1.9c1-0.5,2.1-0.7,3.8-0.7c1.7,0,3,0.2,3.8,0.7c0.8,0.5,1.3,1.2,1.3,1.9s-0.5,1.4-1.3,1.9
		c-0.8,0.5-2.1,0.8-3.8,0.8S143.8,60.6,143,60z M144.1,59.4c0.7,0.2,1.6,0.5,2.7,0.5c1.1,0,2-0.1,2.6-0.5c0.7-0.2,1-0.7,1-1.2
		s-0.4-1-1-1.2c-0.7-0.2-1.6-0.5-2.6-0.5s-2,0.1-2.7,0.5c-0.7,0.2-1,0.7-1,1.2C143.1,58.7,143.5,59,144.1,59.4z"/>
	<path class="st0" d="M163.6,57.6c-0.6,0.1-1.4,0.1-2.5,0.2C160,58,159,58,157.8,58h-3.9v-1.2h3.9v-1.6c-0.8-0.1-1.4-0.4-2-0.8
		c-0.5-0.4-0.7-1-0.7-1.4c0-0.6,0.4-1.2,1-1.6c0.6-0.5,1.4-0.7,2.4-0.7c1,0,1.8,0.2,2.4,0.7c0.6,0.5,1,1,1,1.7
		c0,0.6-0.2,1.1-0.7,1.4c-0.5,0.4-1.2,0.6-1.9,0.7v1.6c0.5,0,1.2,0,2.1-0.1c1,0,1.7-0.1,2.1-0.2v1.2H163.6z M154.7,50.1V49h7.9v1.1
		H154.7z M156.5,47.7v-1.1h4.2v1.1H156.5z M160.2,53.9c0.4-0.2,0.6-0.6,0.6-1s-0.2-0.7-0.6-1c-0.4-0.2-0.8-0.4-1.6-0.4
		c-0.6,0-1.1,0.1-1.4,0.4c-0.4,0.2-0.6,0.6-0.6,1s0.2,0.7,0.6,1c0.4,0.2,0.8,0.4,1.4,0.4C159.3,54.3,159.8,54.1,160.2,53.9z
		 M165.5,46.4v5.8h2v1.2h-2v7h-1.3V46.4H165.5z"/>
	<path class="st0" d="M177,51.9c0.1,0.6,0.4,1.2,0.7,1.7c0.4,0.6,0.7,1.1,1.3,1.6c0.6,0.5,1.1,1,1.8,1.3c-0.2,0.1-0.4,0.2-0.6,0.5
		c-0.2,0.2-0.4,0.4-0.5,0.5c-0.4-0.2-0.7-0.5-1.1-0.8c-0.4-0.2-0.7-0.6-1-1c-0.4-0.4-0.7-0.8-1-1.2c-0.2-0.5-0.5-0.8-0.7-1.3
		c-0.1,0.5-0.2,0.8-0.6,1.3c-0.2,0.5-0.6,0.8-0.8,1.3c-0.4,0.5-0.7,0.8-1.1,1.2s-0.7,0.7-1.1,1c-0.1-0.1-0.4-0.2-0.6-0.5
		c-0.2-0.1-0.5-0.4-0.7-0.5c0.7-0.4,1.3-0.8,1.8-1.4c0.5-0.5,1-1.1,1.3-1.7c0.4-0.6,0.6-1.3,0.7-2s0.2-1.4,0.2-2.3v-2.6h1.4v2.9
		C176.7,50.6,176.9,51.3,177,51.9z M182.3,60.6V46.4h1.3v14.2H182.3z"/>
	<path class="st0" d="M185.2,58.7v-1.2h13.2v1.2H185.2z M193.1,50c0.4,0.6,0.7,1.2,1.2,1.7c0.5,0.5,1.1,1,1.7,1.3
		c0.6,0.4,1.3,0.6,1.9,0.8c-0.1,0.1-0.4,0.4-0.5,0.5c-0.1,0.1-0.4,0.4-0.5,0.5c-0.5-0.1-1-0.4-1.4-0.6c-0.5-0.2-1-0.6-1.4-1
		s-1-0.8-1.3-1.3c-0.4-0.5-0.7-1-0.8-1.4c-0.2,0.5-0.5,0.8-0.8,1.3c-0.4,0.4-0.7,0.8-1.1,1.2c-0.5,0.4-1,0.7-1.6,1.1
		c-0.6,0.4-1.1,0.6-1.7,0.8c-0.1-0.1-0.2-0.4-0.5-0.5c-0.1-0.2-0.4-0.4-0.6-0.6c0.7-0.2,1.4-0.5,2-0.8c0.6-0.4,1.2-0.7,1.7-1.2
		c0.5-0.5,1-1.1,1.2-1.7c0.4-0.6,0.5-1.2,0.5-1.8v-1.2h1.4v1.2C192.6,48.8,192.7,49.4,193.1,50z"/>
	<path class="st0" d="M206.1,53.7c-0.2,0-0.6,0.1-1.1,0.1c-0.5,0-1,0.1-1.6,0.1c-0.7,0-1.6,0.1-2.4,0.1c-0.8,0-1.2,0-1.3,0v-6.9h5.2
		v1.1h-3.9V50h3.6V51h-3.6v1.9c0,0,0.4,0,1,0c0.7,0,1.1,0,1.2,0c0.5,0,1-0.1,1.6-0.1c0.6,0,1-0.1,1.2-0.1v1H206.1z M201.5,60.5v-5.1
		h9.7v5.1H201.5z M209.8,56.4h-6.9v2.9h6.9V56.4z M207,54.6v-3.9h-1.9v-1.2h1.9v-2.9h1.3v8H207z M209.8,54.6v-8.2h1.3v8.2H209.8z"/>
</g>
</svg>
